HIERARCHY
ROOT Hips
{
  OFFSET -33.9132 29.2015 117.021
  CHANNELS 6 Xposition Yposition Zposition Zrotation Xrotation Yrotation
  JOINT LeftUpLeg
  {
    OFFSET 8.64259 1.95398 -2.38835
    CHANNELS 3 Zrotation Xrotation Yrotation
    JOINT LeftLeg
    {
      OFFSET 43.7702 0 0
      CHANNELS 3 Zrotation Xrotation Yrotation
      JOINT LeftFoot
      {
        OFFSET 40.6238 0 0
        CHANNELS 3 Zrotation Xrotation Yrotation
        JOINT LeftToeBase
        {
          OFFSET 12.7242 0 0
          CHANNELS 3 Zrotation Xrotation Yrotation
          End Site
          {
            OFFSET 0 0 0
          }
        }
      }
    }
  }
  JOINT RightUpLeg
  {
    OFFSET -8.2249 1.95398 -2.59336
    CHANNELS 3 Zrotation Xrotation Yrotation
    JOINT RightLeg
    {
      OFFSET 43.5653 0 0
      CHANNELS 3 Zrotation Xrotation Yrotation
      JOINT RightFoot
      {
        OFFSET 40.6238 0 0
        CHANNELS 3 Zrotation Xrotation Yrotation
        JOINT RightToeBase
        {
          OFFSET 12.7242 0 0
          CHANNELS 3 Zrotation Xrotation Yrotation
          End Site
          {
            OFFSET 0 0 0
          }
        }
      }
    }
  }
  JOINT Spine
  {
    OFFSET 0.165834 0.87714 6.61349
    CHANNELS 3 Zrotation Xrotation Yrotation
    JOINT Spine1
    {
      OFFSET 7.38963 1.71661e-005 0
      CHANNELS 3 Zrotation Xrotation Yrotation
      JOINT Spine2
      {
        OFFSET 11.9445 1.14441e-005 0
        CHANNELS 3 Zrotation Xrotation Yrotation
        JOINT Spine3
        {
          OFFSET 14.7254 4.19617e-005 0
          CHANNELS 3 Zrotation Xrotation Yrotation
          JOINT Spine4
          {
            OFFSET 10.9679 0 0
            CHANNELS 3 Zrotation Xrotation Yrotation
            JOINT RightShoulder
            {
              OFFSET 2.46616 -1.6653 3.69651
              CHANNELS 3 Zrotation Xrotation Yrotation
              JOINT RightArm
              {
                OFFSET 13.0012 0 0
                CHANNELS 3 Zrotation Xrotation Yrotation
                JOINT RightForeArm
                {
                  OFFSET 28.7848 1.62311e-005 0
                  CHANNELS 3 Zrotation Xrotation Yrotation
                  JOINT RightHand
                  {
                    OFFSET 26.5688 1.62095e-005 0
                    CHANNELS 3 Zrotation Xrotation Yrotation
                    End Site
                    {
                      OFFSET 0 0 0
                    }
                  }
                }
              }
            }
            JOINT LeftShoulder
            {
              OFFSET 2.38034 -1.29275 -3.7523
              CHANNELS 3 Zrotation Xrotation Yrotation
              JOINT LeftArm
              {
                OFFSET 16.3182 6.07031e-005 0
                CHANNELS 3 Zrotation Xrotation Yrotation
                JOINT LeftForeArm
                {
                  OFFSET 27.0901 0 0
                  CHANNELS 3 Zrotation Xrotation Yrotation
                  JOINT LeftHand
                  {
                    OFFSET 24.5451 1.51738e-005 0
                    CHANNELS 3 Zrotation Xrotation Yrotation
                    End Site
                    {
                      OFFSET 0 0 0
                    }
                  }
                }
              }
            }
            JOINT Neck
            {
              OFFSET 5.0226 -0.0266342 0
              CHANNELS 3 Zrotation Xrotation Yrotation
              JOINT Head
              {
                OFFSET 6.69364 2.86102e-005 0
                CHANNELS 3 Zrotation Xrotation Yrotation
                End Site
                {
                  OFFSET 0 0 0
                }
              }
            }
          }
        }
      }
    }
  }
}
MOTION
Frames:	6
Frame Time:	0.0416667
-79.3851 91.8954 -12.7313 86.8653 -15.3522 80.8368 -174.594 34.2188 77.3239 -46.5761 24.6246 -4.08774 71.985 8.532 4.96237 15.4588 -2.82695 -6.16827 167.813 -8.88636 96.0003 -61.6889 -7.83437 5.1188 65.1348 -3.74519 -1.73807 17.3198 1.72257 10.1087 3.5455 8.61309 -88.2565 9.55243 7.85478 2.8573 -2.09703 7.97286 2.50697 -24.7528 6.63266 5.09255 -4.74015 6.63265 5.09255 92.6719 -9.54294 -110.606 21.7466 22.7656 22.9733 -72.0201 -10.7409 -88.4346 -31.2378 11.5039 -45.5733 -86.2574 -44.157 83.3995 -4.66173 15.8844 21.6879 20.2146 41.3452 -40.399 30.1519 -11.4618 -37.9886 22.4084 -29.3661 -20.549 -1.21422 -22.0613 -5.35793 
-74.53 90.8098 -7.64469 86.9468 -16.9409 80.1196 -175.647 31.7629 77.9093 -53.3496 20.0101 -1.78293 81.8405 15.0158 2.52707 13.387 -8.75548 2.14057 163.963 -0.482486 93.6337 -78.9547 -0.926611 2.45524 67.0124 -6.04588 -3.71863 17.792 1.12833 11.3277 3.10835 8.65232 -88.1234 9.46844 7.04226 3.19005 -2.18652 7.17574 2.87583 -24.8011 5.75847 5.16223 -4.78847 5.75847 5.16222 91.1388 -14.6134 -111.551 20.8567 22.7388 30.7905 -73.306 -13.287 -87.802 -32.9688 11.5941 -43.7561 -87.541 -45.9167 81.6739 0.609272 16.4266 12.7155 18.9639 38.9915 -40.1217 31.8809 -12.9944 -40.4484 21.349 -27.0665 -20.5036 -0.049588 -20.0504 -6.80872 
-69.9281 89.9273 -2.59091 87.8814 -18.075 77.6559 -176.11 26.1794 77.8882 -53.5148 18.1204 -1.13414 85.9729 18.0257 1.30411 21.8464 -4.55597 2.6269 163.143 9.18451 90.4208 -94.127 0.752641 -1.08218 70.6476 -9.17474 -5.58254 15.4432 2.53967 9.8225 2.48945 8.95498 -87.8508 8.85169 5.92226 3.85701 -2.81071 6.08612 3.59221 -25.3689 4.49085 5.45797 -5.35623 4.49085 5.45797 90.3842 -17.7937 -111.566 22.0259 20.5293 39.1531 -72.6115 -14.836 -87.0651 -33.6392 11.42 -42.4918 -87.881 -46.6047 81.2733 5.75397 13.6092 -1.3465 15.9772 36.889 -39.1221 37.3402 -15.4996 -41.0337 23.5874 -24.9819 -18.2896 -0.358091 -18.2935 -9.70384 
-65.1192 89.0289 2.54851 88.0756 -19.0501 76.4282 -176.099 20.1987 79.5216 -52.3988 16.5409 -0.868553 91.6008 21.5647 -1.25954 25.5503 -3.62558 4.59847 166.453 19.695 89.8282 -105.99 -2.64962 -3.24283 75.0826 -12.6655 -6.8055 11.4877 3.94978 10.0546 1.83561 9.08121 -87.7123 8.60772 4.67546 4.22586 -3.06103 4.85675 4.01605 -25.5774 3.19134 5.43362 -5.56475 3.19135 5.43362 90.8175 -18.4317 -110.18 28.5555 14.0291 46.1622 -65.1697 -16.0897 -84.1734 -35.3521 11.4257 -40.6592 -87.3794 -43.628 81.4844 6.5584 7.62578 -14.3966 14.6416 32.7809 -39.5826 38.1544 -16.1188 -41.9164 24.8125 -22.4836 -17.2314 -0.0276803 -16.0064 -10.8672 
-60.4036 88.6695 7.95084 87.5193 -21.7533 78.2322 -174.012 13.5901 85.0289 -49.0805 15.7113 -0.865134 97.1972 23.6043 -5.71961 27.0714 -3.76028 6.6367 172.083 29.6904 91.6159 -112.104 -4.17515 -3.98502 76.9528 -14.4242 -8.15728 13.3183 2.46636 12.072 1.37894 8.97289 -87.9816 8.85436 3.64886 3.74985 -2.81639 3.81024 3.58573 -25.3285 2.35459 4.67171 -5.31582 2.35455 4.67169 92.388 -17.0739 -107.057 35.9649 8.04076 54.3362 -66.9706 -14.7742 -85.4134 -32.78 10.9884 -42.0796 -87.0852 -40.2628 81.3075 6.67028 0.223042 -23.18 16.3406 30.0995 -41.6505 36.7885 -17.7113 -47.2237 25.1073 -18.9386 -15.3559 -0.217907 -13.0726 -10.1286 
-55.4278 88.8056 13.3791 85.4541 -24.0265 79.4415 -171.895 7.92535 89.8187 -43.3571 17.5153 -0.945658 96.1087 24.1431 -4.32783 31.8425 -1.60203 7.58454 177.442 40.8542 91.9063 -113.127 -1.32517 -4.27717 78.799 -15.5624 -8.32471 14.5787 1.58645 13.1923 0.760493 8.57331 -88.2007 9.68061 2.32902 3.38656 -1.99239 2.47574 3.28089 -24.498 1.20446 3.92916 -4.48531 1.20445 3.92916 93.4581 -16.4032 -104.694 42.7303 4.08601 62.0175 -70.7329 -15.1034 -86.405 -33.9372 11.3901 -42.0352 -86.663 -36.1684 81.1708 8.64299 -7.67478 -29.2981 18.0471 27.8779 -44.3341 39.5116 -19.3304 -47.9917 24.1157 -14.7911 -14.899 -1.16917 -9.21663 -8.79163 
